<?xml version="1.0" encoding="utf-8"?>
<!-- Generator: Adobe Illustrator 15.0.0, SVG Export Plug-In . SVG Version: 6.00 Build 0)  -->
<!DOCTYPE svg PUBLIC "-//W3C//DTD SVG 1.1//EN" "http://www.w3.org/Graphics/SVG/1.1/DTD/svg11.dtd">
<svg version="1.1" id="Layer_1" xmlns="http://www.w3.org/2000/svg" xmlns:xlink="http://www.w3.org/1999/xlink" x="0px" y="0px"
	 width="380px" height="200px" viewBox="0 0 380 200" enable-background="new 0 0 380 200" xml:space="preserve">
<g>
	<g>
		<polygon fill="#4EB75A" points="78.488,130.864 15.067,107.301 15.067,43.88 78.488,67.444 		"/>
		<polygon fill="#3575B8" points="89.2,130.864 152.617,107.301 152.617,43.88 89.2,67.444 		"/>
	</g>
	<polygon fill="#F58529" points="19.062,35.727 85.204,59.282 148.625,35.727 85.204,8.215 	"/>
</g>
<g>
	<g>
		<path fill="#0F3455" d="M209.483,54.959c-0.68,0.529-1.445,1.039-2.294,1.53c-0.85,0.491-1.936,0.888-3.257,1.189
			c0.188,0.189,0.481,0.52,0.878,0.991c0.396,0.473,0.802,1.03,1.218,1.671l7.025,11.896l5.042,1.077V76.6h-13.37v-3.286
			l-7.421-14.56h-5.438v13.37l5.382,1.19V76.6h-17.505v-3.286l4.759-1.19V40.287l-4.759-1.19v-3.286h21.188
			c1.813,0,3.399,0.17,4.758,0.51c1.36,0.34,2.586,0.888,3.683,1.643c1.359,0.982,2.436,2.248,3.229,3.795
			c0.793,1.549,1.189,3.116,1.189,4.702s-0.388,3.144-1.161,4.674C211.853,52.665,210.804,53.94,209.483,54.959z M198.266,54.62
			c2.076,0,3.795-0.585,5.155-1.756c0.755-0.642,1.35-1.501,1.785-2.578c0.434-1.076,0.651-2.237,0.651-3.484
			c0-1.133-0.227-2.153-0.68-3.059s-1.058-1.68-1.813-2.323c-1.246-0.981-3.022-1.473-5.325-1.473h-6.175V54.62H198.266z"/>
		<path fill="#0F3455" d="M243.756,63.117l-0.963-5.325h-7.761v14.559h15.579l1.586-8.384h4.985V76.6h-34.84v-3.286l5.325-1.19
			V40.287l-5.325-1.19v-3.286h33.594v12.01h-4.646l-1.643-7.874h-14.616v13.596h7.761l0.963-5.382h4.588v14.956H243.756z"/>
		<path fill="#0F3455" d="M280.239,83.625v3.172h-17.052v-3.172l4.362-1.077V50.257l-4.362-1.076v-3.172h9.857l0.85,4.362
			c1.208-1.888,2.578-3.181,4.107-3.88c1.529-0.698,3.257-1.048,5.184-1.048c1.926,0,3.672,0.283,5.24,0.85
			c1.566,0.566,2.841,1.473,3.824,2.719c1.133,1.436,2.03,3.154,2.691,5.155c0.66,2.002,0.991,4.192,0.991,6.571
			c0,2.417-0.368,4.693-1.104,6.827c-0.736,2.134-1.728,3.918-2.974,5.354c-2.116,2.455-5.155,3.682-9.121,3.682
			c-1.625,0-3.088-0.302-4.391-0.906c-1.303-0.604-2.502-1.7-3.597-3.286v10.141L280.239,83.625z M274.688,60.738
			c0,2.078,0.17,3.872,0.51,5.382c0.34,1.511,0.793,2.739,1.359,3.683c0.566,0.944,1.284,1.681,2.153,2.209
			c0.868,0.529,1.907,0.793,3.116,0.793c1.17,0,2.125-0.246,2.861-0.737c0.737-0.49,1.332-1.133,1.785-1.926
			c0.566-0.982,1.01-2.247,1.331-3.796c0.321-1.548,0.482-3.229,0.482-5.042c0-1.926-0.17-3.719-0.51-5.382
			c-0.34-1.661-0.793-3.002-1.359-4.022c-0.566-0.981-1.266-1.662-2.096-2.04c-0.831-0.377-1.775-0.566-2.833-0.566
			c-2.229,0-3.89,0.869-4.985,2.606c-0.529,0.869-0.963,2.04-1.303,3.512C274.857,56.886,274.688,58.661,274.688,60.738z"/>
		<path fill="#0F3455" d="M319.044,50.144c-0.34,0-0.699,0.151-1.077,0.454c-0.378,0.302-0.746,0.68-1.104,1.133
			c-0.359,0.453-0.68,0.935-0.963,1.444c-0.283,0.51-0.501,0.955-0.652,1.332c-0.453,1.322-0.85,2.654-1.189,3.994
			c-0.34,1.341-0.51,2.994-0.51,4.957v8.894l6.118,1.077V76.6h-17.675v-3.172l4.362-1.077V49.408l-4.362-1.076v-2.323h9.857
			l1.247,7.478h0.227c0.868-2.606,2.03-4.598,3.484-5.977c1.454-1.378,3.087-2.067,4.9-2.067c1.473,0,2.7,0.463,3.682,1.388
			c0.982,0.926,1.473,2.163,1.473,3.71c0,1.133-0.34,2.163-1.02,3.088c-0.68,0.926-1.643,1.388-2.889,1.388
			c-1.549,0-2.634-0.349-3.257-1.048c-0.623-0.699-0.935-1.463-0.935-2.294c0-0.264,0.019-0.481,0.057-0.651
			C318.855,50.853,318.931,50.56,319.044,50.144z"/>
		<path fill="#0F3455" d="M360.796,61.304c0,2.417-0.35,4.693-1.048,6.827c-0.699,2.134-1.709,3.918-3.031,5.354
			c-1.246,1.322-2.739,2.266-4.476,2.833c-1.737,0.566-3.795,0.85-6.175,0.85s-4.438-0.283-6.175-0.85
			c-1.738-0.566-3.229-1.51-4.476-2.833c-1.322-1.435-2.333-3.219-3.031-5.354c-0.699-2.133-1.048-4.409-1.048-6.827
			c0-2.417,0.349-4.692,1.048-6.826c0.698-2.133,1.708-3.918,3.031-5.354c1.247-1.322,2.738-2.266,4.476-2.833
			c1.737-0.566,3.795-0.85,6.175-0.85s4.438,0.283,6.175,0.85c1.737,0.566,3.229,1.511,4.476,2.833
			c1.322,1.436,2.332,3.22,3.031,5.354C360.446,56.612,360.796,58.888,360.796,61.304z M340.912,71.105
			c1.02,1.511,2.738,2.266,5.155,2.266c2.417,0,4.136-0.755,5.155-2.266c1.208-1.85,1.813-5.117,1.813-9.801
			c0-4.682-0.604-7.95-1.813-9.8c-1.02-1.51-2.739-2.266-5.155-2.266c-2.417,0-4.135,0.756-5.155,2.266
			c-1.209,1.851-1.813,5.118-1.813,9.8C339.099,65.988,339.703,69.255,340.912,71.105z"/>
	</g>
</g>
<g>
	<g>
		<path fill="#747B84" d="M190.952,110.745c0-1.003-0.353-1.797-1.057-2.381c-0.705-0.584-1.994-1.14-3.867-1.666
			s-3.241-1.101-4.103-1.722c-1.227-0.878-1.84-2.031-1.84-3.457c0-1.384,0.57-2.509,1.71-3.375c1.14-0.866,2.596-1.299,4.37-1.299
			c1.202,0,2.277,0.232,3.227,0.696s1.685,1.111,2.207,1.939c0.522,0.829,0.784,1.753,0.784,2.773h-1.542
			c0-1.239-0.423-2.234-1.268-2.987c-0.846-0.752-1.981-1.129-3.407-1.129c-1.384,0-2.487,0.309-3.307,0.928
			c-0.821,0.619-1.231,1.426-1.231,2.422c0,0.921,0.369,1.673,1.106,2.254c0.738,0.582,1.919,1.094,3.543,1.538
			c1.625,0.444,2.856,0.905,3.693,1.381c0.837,0.477,1.467,1.046,1.89,1.709s0.634,1.447,0.634,2.35c0,1.426-0.57,2.57-1.71,3.432
			c-1.14,0.862-2.642,1.293-4.507,1.293c-1.276,0-2.447-0.228-3.512-0.684c-1.065-0.456-1.874-1.094-2.425-1.915
			c-0.551-0.82-0.827-1.761-0.827-2.822h1.529c0,1.276,0.477,2.284,1.43,3.021s2.222,1.106,3.805,1.106
			c1.409,0,2.541-0.311,3.395-0.933C190.525,112.597,190.952,111.772,190.952,110.745z"/>
		<path fill="#747B84" d="M215.462,106.517h-8.467v7.386h9.735v1.293h-11.265V97.092h11.203v1.293h-9.673v6.839h8.467V106.517z"/>
		<path fill="#747B84" d="M236.391,107.648h-5.259v7.547h-1.542V97.092h5.881c1.931,0,3.44,0.468,4.526,1.403
			s1.629,2.244,1.629,3.924c0,1.159-0.34,2.182-1.02,3.067c-0.68,0.886-1.592,1.499-2.736,1.838l4.526,7.708v0.162h-1.628
			L236.391,107.648z M231.131,106.355h4.688c1.285,0,2.316-0.365,3.096-1.096c0.779-0.73,1.169-1.677,1.169-2.839
			c0-1.278-0.406-2.271-1.219-2.976c-0.812-0.706-1.952-1.059-3.419-1.059h-4.314V106.355z"/>
		<path fill="#747B84" d="M260.689,112.958l0.1,0.386l0.112-0.386l5.695-15.865h1.679l-6.739,18.104h-1.467l-6.739-18.104h1.667
			L260.689,112.958z"/>
		<path fill="#747B84" d="M282.476,115.196h-1.529V97.092h1.529V115.196z"/>
		<path fill="#747B84" d="M309.883,109.551c-0.207,1.907-0.889,3.366-2.045,4.377c-1.156,1.011-2.696,1.517-4.619,1.517
			c-1.343,0-2.53-0.335-3.562-1.007c-1.032-0.671-1.83-1.623-2.394-2.854c-0.564-1.231-0.85-2.638-0.858-4.222v-2.35
			c0-1.608,0.282-3.034,0.845-4.277c0.564-1.244,1.374-2.203,2.431-2.878c1.057-0.676,2.273-1.013,3.649-1.013
			c1.94,0,3.471,0.522,4.595,1.566c1.123,1.044,1.776,2.491,1.958,4.339h-1.542c-0.381-3.075-2.052-4.613-5.011-4.613
			c-1.641,0-2.949,0.614-3.923,1.842c-0.974,1.228-1.461,2.924-1.461,5.089v2.215c0,2.09,0.475,3.758,1.424,5.002
			c0.949,1.244,2.232,1.866,3.848,1.866c1.6,0,2.806-0.383,3.618-1.15c0.813-0.767,1.314-1.917,1.505-3.451H309.883z"/>
		<path fill="#747B84" d="M333.274,106.517h-8.467v7.386h9.735v1.293h-11.265V97.092h11.203v1.293h-9.673v6.839h8.467V106.517z"/>
		<path fill="#747B84" d="M357.685,110.745c0-1.003-0.353-1.797-1.057-2.381c-0.705-0.584-1.994-1.14-3.867-1.666
			s-3.241-1.101-4.103-1.722c-1.227-0.878-1.84-2.031-1.84-3.457c0-1.384,0.57-2.509,1.71-3.375c1.14-0.866,2.596-1.299,4.37-1.299
			c1.202,0,2.277,0.232,3.227,0.696s1.685,1.111,2.207,1.939c0.522,0.829,0.784,1.753,0.784,2.773h-1.542
			c0-1.239-0.423-2.234-1.268-2.987c-0.846-0.752-1.981-1.129-3.407-1.129c-1.384,0-2.487,0.309-3.307,0.928
			c-0.821,0.619-1.231,1.426-1.231,2.422c0,0.921,0.369,1.673,1.106,2.254c0.738,0.582,1.919,1.094,3.543,1.538
			c1.625,0.444,2.856,0.905,3.693,1.381c0.837,0.477,1.467,1.046,1.89,1.709s0.634,1.447,0.634,2.35c0,1.426-0.57,2.57-1.71,3.432
			c-1.14,0.862-2.642,1.293-4.507,1.293c-1.276,0-2.447-0.228-3.512-0.684c-1.065-0.456-1.874-1.094-2.425-1.915
			c-0.551-0.82-0.827-1.761-0.827-2.822h1.529c0,1.276,0.477,2.284,1.43,3.021s2.222,1.106,3.805,1.106
			c1.409,0,2.541-0.311,3.395-0.933C357.258,112.597,357.685,111.772,357.685,110.745z"/>
	</g>
</g>
<g>
	<g>
		<path fill="#0F3455" d="M27.724,170.269h-5.257l-2.611,15.075h-2.17l2.611-15.075h-5.257l0.325-1.822h12.685L27.724,170.269z"/>
		<path fill="#0F3455" d="M32.809,174.319c1.099-1.199,2.364-1.783,3.795-1.752c1.176,0.016,2.048,0.419,2.617,1.212
			c0.569,0.793,0.779,1.905,0.632,3.337l-1.369,8.228h-2.101l1.381-8.263c0.046-0.379,0.05-0.731,0.012-1.056
			c-0.132-1.083-0.77-1.637-1.915-1.66c-1.284-0.031-2.391,0.642-3.319,2.019l-1.555,8.959h-2.101l3.099-17.826h2.101
			L32.809,174.319z"/>
		<path fill="#0F3455" d="M48.698,185.576c-1.563-0.031-2.785-0.607-3.667-1.729c-0.882-1.122-1.253-2.557-1.114-4.306l0.058-0.499
			c0.131-1.246,0.5-2.383,1.108-3.412c0.607-1.029,1.348-1.804,2.223-2.327c0.874-0.522,1.818-0.772,2.832-0.749
			c1.292,0.031,2.306,0.46,3.041,1.288c0.735,0.828,1.138,1.95,1.207,3.366c0.023,0.503,0.008,1.006-0.046,1.509l-0.127,0.963
			h-8.205c-0.139,1.138,0.048,2.104,0.563,2.901c0.514,0.797,1.282,1.211,2.304,1.242c1.238,0.031,2.383-0.526,3.435-1.671
			l1.207,1.021c-0.526,0.759-1.205,1.352-2.037,1.782C50.646,185.385,49.72,185.592,48.698,185.576z M50.033,174.308
			c-0.866-0.023-1.623,0.271-2.269,0.882c-0.646,0.611-1.159,1.521-1.538,2.728l6.104,0.011l0.046-0.186
			c0.124-0.975-0.033-1.785-0.47-2.431C51.47,174.666,50.845,174.331,50.033,174.308z"/>
		<path fill="#0F3455" d="M75.928,179.124c-0.155,1.276-0.499,2.425-1.033,3.447c-0.534,1.021-1.195,1.785-1.984,2.292
			c-0.79,0.506-1.664,0.749-2.623,0.725c-1.455-0.031-2.569-0.522-3.342-1.474l-1.126,6.058h-2.1l3.017-17.385l1.903-0.011
			l-0.232,1.404c1.037-1.114,2.278-1.655,3.725-1.625c1.207,0.031,2.147,0.476,2.82,1.334c0.673,0.859,1.029,2.042,1.067,3.551
			c0.008,0.495-0.011,0.975-0.058,1.439L75.928,179.124z M73.863,178.886l0.058-0.974c0-1.128-0.214-1.992-0.644-2.591
			c-0.429-0.599-1.05-0.914-1.862-0.944c-1.215-0.031-2.263,0.544-3.146,1.727l-1.056,6.016c0.472,1.113,1.319,1.685,2.542,1.715
			c1.044,0.023,1.932-0.384,2.663-1.223C73.149,181.774,73.63,180.532,73.863,178.886z"/>
		<path fill="#0F3455" d="M81.454,185.344h-2.089l3.087-17.826h2.101L81.454,185.344z"/>
		<path fill="#0F3455" d="M94.141,185.344c-0.054-0.224-0.081-0.445-0.081-0.662l0.035-0.662c-1.153,1.068-2.375,1.586-3.667,1.555
			c-1.106-0.016-2.006-0.365-2.698-1.05c-0.692-0.685-1.008-1.542-0.946-2.57c0.077-1.331,0.66-2.369,1.747-3.116
			c1.087-0.747,2.517-1.12,4.289-1.12l2.193,0.011l0.139-0.998c0.077-0.75-0.068-1.344-0.435-1.781
			c-0.368-0.437-0.919-0.663-1.654-0.679c-0.72-0.016-1.356,0.161-1.909,0.528c-0.553,0.368-0.892,0.853-1.016,1.457l-2.112,0.012
			c0.07-0.735,0.356-1.387,0.859-1.956c0.503-0.569,1.149-1.01,1.938-1.323c0.79-0.313,1.605-0.462,2.449-0.447
			c1.308,0.031,2.325,0.428,3.052,1.189c0.728,0.762,1.033,1.774,0.917,3.035l-1.021,6.22l-0.058,0.894
			c-0.016,0.426,0.031,0.847,0.139,1.265l-0.023,0.197H94.141z M90.845,183.72c0.673,0.015,1.31-0.146,1.909-0.482
			s1.116-0.803,1.549-1.398l0.453-2.588l-1.59-0.012c-1.323,0-2.337,0.209-3.041,0.627c-0.704,0.417-1.103,1.009-1.195,1.775
			c-0.069,0.588,0.068,1.078,0.412,1.468S90.188,183.704,90.845,183.72z"/>
		<path fill="#0F3455" d="M105.992,183.835c0.75,0.016,1.427-0.203,2.031-0.656s0.998-1.046,1.184-1.781l1.985-0.012
			c-0.116,0.789-0.432,1.509-0.946,2.159c-0.515,0.65-1.163,1.157-1.944,1.521c-0.781,0.363-1.582,0.534-2.402,0.51
			c-1.045-0.016-1.929-0.288-2.652-0.818c-0.724-0.53-1.255-1.269-1.596-2.217c-0.341-0.948-0.457-2.014-0.349-3.197l0.058-0.58
			c0.147-1.207,0.499-2.287,1.056-3.238c0.557-0.952,1.284-1.692,2.182-2.223c0.897-0.53,1.887-0.779,2.971-0.749
			c1.315,0.031,2.368,0.472,3.157,1.323s1.184,1.93,1.184,3.238l-1.961-0.012c-0.016-0.82-0.244-1.483-0.685-1.99
			s-1.037-0.776-1.787-0.807c-1.091-0.023-1.998,0.383-2.722,1.219c-0.723,0.835-1.174,2.004-1.352,3.504l-0.035,0.302
			c-0.046,0.496-0.054,1.006-0.023,1.532c0.054,0.905,0.309,1.621,0.766,2.147C104.568,183.538,105.195,183.813,105.992,183.835z"/>
		<path fill="#0F3455" d="M119.874,185.576c-1.563-0.031-2.785-0.607-3.667-1.729c-0.882-1.122-1.253-2.557-1.114-4.306l0.058-0.499
			c0.131-1.246,0.5-2.383,1.108-3.412c0.607-1.029,1.348-1.804,2.223-2.327c0.874-0.522,1.818-0.772,2.832-0.749
			c1.292,0.031,2.306,0.46,3.041,1.288c0.735,0.828,1.138,1.95,1.207,3.366c0.023,0.503,0.008,1.006-0.046,1.509l-0.127,0.963
			h-8.205c-0.139,1.138,0.048,2.104,0.563,2.901c0.514,0.797,1.282,1.211,2.304,1.242c1.238,0.031,2.383-0.526,3.435-1.671
			l1.207,1.021c-0.526,0.759-1.205,1.352-2.037,1.782C121.822,185.385,120.896,185.592,119.874,185.576z M121.208,174.308
			c-0.866-0.023-1.623,0.271-2.269,0.882c-0.646,0.611-1.159,1.521-1.538,2.728l6.104,0.011l0.046-0.186
			c0.124-0.975-0.033-1.785-0.47-2.431C122.646,174.666,122.021,174.331,121.208,174.308z"/>
		<path fill="#0F3455" d="M136.752,185.344l1.903-10.897h-1.938l0.29-1.66h1.927l0.209-1.485c0.201-1.261,0.688-2.248,1.462-2.959
			c0.813-0.743,1.849-1.106,3.11-1.091c0.395,0,0.894,0.066,1.497,0.199l-0.255,1.763c-0.371-0.077-0.747-0.124-1.125-0.139
			c-0.728,0-1.317,0.226-1.77,0.677s-0.733,1.051-0.841,1.799l-0.186,1.238h2.6l-0.291,1.66h-2.6l-1.892,10.897H136.752z"/>
		<path fill="#0F3455" d="M152.398,172.555c1.052,0.016,1.954,0.302,2.704,0.859s1.306,1.325,1.666,2.304
			c0.36,0.979,0.481,2.048,0.365,3.208l-0.023,0.255c-0.147,1.223-0.511,2.327-1.091,3.313c-0.581,0.986-1.331,1.754-2.251,2.304
			c-0.921,0.549-1.931,0.808-3.029,0.777c-1.044-0.016-1.944-0.302-2.698-0.858c-0.754-0.557-1.305-1.315-1.653-2.275
			c-0.349-0.959-0.472-2.015-0.372-3.168c0.116-1.299,0.468-2.468,1.056-3.504c0.588-1.037,1.344-1.84,2.269-2.408
			C150.265,172.793,151.284,172.524,152.398,172.555z M148.127,179.286c-0.054,0.487-0.054,0.994,0,1.521
			c0.077,0.913,0.35,1.64,0.818,2.182s1.093,0.824,1.875,0.847c0.696,0.023,1.338-0.149,1.926-0.516
			c0.588-0.368,1.083-0.923,1.485-1.666s0.662-1.567,0.778-2.472c0.062-0.711,0.073-1.311,0.035-1.799
			c-0.093-0.936-0.375-1.675-0.847-2.216s-1.099-0.828-1.88-0.859c-1.083-0.023-2.004,0.402-2.762,1.276
			c-0.758,0.875-1.226,2.02-1.404,3.436L148.127,179.286z"/>
		<path fill="#0F3455" d="M168.067,174.702l-0.986-0.104c-1.346,0-2.406,0.607-3.18,1.822l-1.543,8.924h-2.101l2.182-12.557
			l2.031-0.011l-0.313,1.462c0.89-1.168,1.938-1.737,3.145-1.706c0.255,0,0.588,0.058,0.998,0.174L168.067,174.702z"/>
		<path fill="#0F3455" d="M184.817,185.344c-0.054-0.224-0.081-0.445-0.081-0.662l0.035-0.662c-1.153,1.068-2.375,1.586-3.667,1.555
			c-1.106-0.016-2.006-0.365-2.698-1.05c-0.692-0.685-1.008-1.542-0.946-2.57c0.077-1.331,0.66-2.369,1.747-3.116
			c1.087-0.747,2.517-1.12,4.289-1.12l2.193,0.011l0.139-0.998c0.077-0.75-0.068-1.344-0.435-1.781
			c-0.368-0.437-0.919-0.663-1.654-0.679c-0.72-0.016-1.356,0.161-1.909,0.528c-0.553,0.368-0.892,0.853-1.016,1.457l-2.112,0.012
			c0.07-0.735,0.356-1.387,0.859-1.956c0.503-0.569,1.149-1.01,1.938-1.323c0.79-0.313,1.605-0.462,2.449-0.447
			c1.308,0.031,2.325,0.428,3.052,1.189c0.728,0.762,1.033,1.774,0.917,3.035l-1.021,6.22l-0.058,0.894
			c-0.016,0.426,0.031,0.847,0.139,1.265l-0.023,0.197H184.817z M181.521,183.72c0.673,0.015,1.31-0.146,1.909-0.482
			s1.116-0.803,1.549-1.398l0.453-2.588l-1.59-0.012c-1.323,0-2.337,0.209-3.041,0.627c-0.704,0.417-1.103,1.009-1.195,1.775
			c-0.069,0.588,0.068,1.078,0.412,1.468S180.864,183.704,181.521,183.72z"/>
		<path fill="#0F3455" d="M193.639,185.344h-2.089l3.087-17.826h2.101L193.639,185.344z"/>
		<path fill="#0F3455" d="M200.918,185.344h-2.089l3.087-17.826h2.101L200.918,185.344z"/>
		<path fill="#0F3455" d="M218.62,183.835c0.75,0.016,1.427-0.203,2.031-0.656s0.998-1.046,1.184-1.781l1.985-0.012
			c-0.116,0.789-0.432,1.509-0.946,2.159c-0.515,0.65-1.163,1.157-1.944,1.521c-0.781,0.363-1.582,0.534-2.402,0.51
			c-1.045-0.016-1.929-0.288-2.652-0.818c-0.724-0.53-1.255-1.269-1.596-2.217c-0.341-0.948-0.457-2.014-0.349-3.197l0.058-0.58
			c0.147-1.207,0.499-2.287,1.056-3.238c0.557-0.952,1.284-1.692,2.182-2.223c0.897-0.53,1.887-0.779,2.971-0.749
			c1.315,0.031,2.368,0.472,3.157,1.323s1.184,1.93,1.184,3.238l-1.961-0.012c-0.016-0.82-0.244-1.483-0.685-1.99
			s-1.037-0.776-1.787-0.807c-1.091-0.023-1.998,0.383-2.722,1.219c-0.723,0.835-1.174,2.004-1.352,3.504l-0.035,0.302
			c-0.046,0.496-0.054,1.006-0.023,1.532c0.054,0.905,0.309,1.621,0.766,2.147C217.196,183.538,217.823,183.813,218.62,183.835z"/>
		<path fill="#0F3455" d="M234.045,172.555c1.052,0.016,1.954,0.302,2.704,0.859s1.306,1.325,1.666,2.304
			c0.36,0.979,0.481,2.048,0.365,3.208l-0.023,0.255c-0.147,1.223-0.511,2.327-1.091,3.313c-0.581,0.986-1.331,1.754-2.251,2.304
			c-0.921,0.549-1.931,0.808-3.029,0.777c-1.044-0.016-1.944-0.302-2.698-0.858c-0.754-0.557-1.305-1.315-1.653-2.275
			c-0.349-0.959-0.472-2.015-0.372-3.168c0.116-1.299,0.468-2.468,1.056-3.504c0.588-1.037,1.344-1.84,2.269-2.408
			C231.912,172.793,232.931,172.524,234.045,172.555z M229.775,179.286c-0.054,0.487-0.054,0.994,0,1.521
			c0.077,0.913,0.35,1.64,0.818,2.182s1.093,0.824,1.875,0.847c0.696,0.023,1.338-0.149,1.926-0.516
			c0.588-0.368,1.083-0.923,1.485-1.666s0.662-1.567,0.778-2.472c0.062-0.711,0.073-1.311,0.035-1.799
			c-0.093-0.936-0.375-1.675-0.847-2.216s-1.099-0.828-1.88-0.859c-1.083-0.023-2.004,0.402-2.762,1.276
			c-0.758,0.875-1.226,2.02-1.404,3.436L229.775,179.286z"/>
		<path fill="#0F3455" d="M246.047,172.776l-0.267,1.404c1.052-1.114,2.325-1.655,3.818-1.625c0.797,0.016,1.472,0.197,2.025,0.545
			s0.935,0.84,1.143,1.474c1.176-1.377,2.565-2.05,4.167-2.02c1.253,0.031,2.178,0.453,2.773,1.265
			c0.596,0.812,0.816,1.903,0.662,3.272l-1.381,8.251h-2.089l1.369-8.274c0.046-0.402,0.046-0.77,0-1.103
			c-0.147-1.052-0.835-1.59-2.065-1.613c-0.766-0.016-1.46,0.223-2.083,0.714c-0.623,0.491-1.023,1.135-1.201,1.932l-1.427,8.344
			h-2.112l1.393-8.263c0.101-0.858-0.029-1.52-0.389-1.984s-0.919-0.704-1.677-0.719c-1.308-0.031-2.349,0.564-3.122,1.787
			l-1.59,9.18h-2.101l2.182-12.557L246.047,172.776z"/>
		<path fill="#0F3455" d="M275.167,179.124c-0.155,1.276-0.499,2.425-1.033,3.447c-0.534,1.021-1.195,1.785-1.984,2.292
			c-0.79,0.506-1.664,0.749-2.623,0.725c-1.455-0.031-2.569-0.522-3.342-1.474l-1.126,6.058h-2.1l3.017-17.385l1.903-0.011
			l-0.232,1.404c1.037-1.114,2.278-1.655,3.725-1.625c1.207,0.031,2.147,0.476,2.82,1.334c0.673,0.859,1.029,2.042,1.067,3.551
			c0.008,0.495-0.011,0.975-0.058,1.439L275.167,179.124z M273.102,178.886l0.058-0.974c0-1.128-0.214-1.992-0.644-2.591
			c-0.429-0.599-1.05-0.914-1.862-0.944c-1.215-0.031-2.263,0.544-3.146,1.727l-1.056,6.016c0.472,1.113,1.319,1.685,2.542,1.715
			c1.044,0.023,1.932-0.384,2.663-1.223C272.388,181.774,272.869,180.532,273.102,178.886z"/>
		<path fill="#0F3455" d="M280.693,185.344h-2.089l3.087-17.826h2.101L280.693,185.344z"/>
		<path fill="#0F3455" d="M287.971,185.344h-2.089l2.182-12.557h2.089L287.971,185.344z M289.701,168.203
			c0.355-0.015,0.651,0.091,0.888,0.319c0.236,0.228,0.354,0.528,0.354,0.899c-0.008,0.364-0.126,0.661-0.354,0.894
			c-0.229,0.232-0.524,0.356-0.888,0.371c-0.364,0.016-0.662-0.089-0.894-0.313c-0.232-0.225-0.345-0.519-0.337-0.882
			c0.008-0.363,0.124-0.665,0.348-0.905C289.043,168.346,289.337,168.219,289.701,168.203z"/>
		<path fill="#0F3455" d="M300.658,185.344c-0.054-0.224-0.081-0.445-0.081-0.662l0.035-0.662c-1.153,1.068-2.375,1.586-3.667,1.555
			c-1.106-0.016-2.006-0.365-2.698-1.05c-0.692-0.685-1.008-1.542-0.946-2.57c0.077-1.331,0.66-2.369,1.747-3.116
			c1.087-0.747,2.517-1.12,4.289-1.12l2.193,0.011l0.139-0.998c0.077-0.75-0.068-1.344-0.435-1.781
			c-0.368-0.437-0.919-0.663-1.654-0.679c-0.72-0.016-1.356,0.161-1.909,0.528c-0.553,0.368-0.892,0.853-1.016,1.457l-2.112,0.012
			c0.07-0.735,0.356-1.387,0.859-1.956c0.503-0.569,1.149-1.01,1.938-1.323c0.79-0.313,1.605-0.462,2.449-0.447
			c1.308,0.031,2.325,0.428,3.052,1.189c0.728,0.762,1.033,1.774,0.917,3.035l-1.021,6.22l-0.058,0.894
			c-0.016,0.426,0.031,0.847,0.139,1.265l-0.023,0.197H300.658z M297.362,183.72c0.673,0.015,1.31-0.146,1.909-0.482
			s1.116-0.803,1.549-1.398l0.453-2.588l-1.59-0.012c-1.323,0-2.337,0.209-3.041,0.627c-0.704,0.417-1.103,1.009-1.195,1.775
			c-0.069,0.588,0.068,1.078,0.412,1.468S296.704,183.704,297.362,183.72z"/>
		<path fill="#0F3455" d="M311.372,172.776l-0.302,1.59c1.13-1.238,2.414-1.841,3.853-1.811c1.184,0.031,2.058,0.441,2.623,1.23
			c0.564,0.79,0.773,1.899,0.626,3.331l-1.369,8.228h-2.101l1.381-8.254c0.046-0.378,0.05-0.73,0.012-1.055
			c-0.132-1.082-0.77-1.635-1.915-1.658c-1.261-0.023-2.367,0.649-3.319,2.017l-1.555,8.95h-2.101l2.182-12.557L311.372,172.776z"/>
		<path fill="#0F3455" d="M326.913,183.835c0.75,0.016,1.427-0.203,2.031-0.656s0.998-1.046,1.184-1.781l1.985-0.012
			c-0.116,0.789-0.432,1.509-0.946,2.159c-0.515,0.65-1.163,1.157-1.944,1.521c-0.781,0.363-1.582,0.534-2.402,0.51
			c-1.045-0.016-1.929-0.288-2.652-0.818c-0.724-0.53-1.255-1.269-1.596-2.217c-0.341-0.948-0.457-2.014-0.349-3.197l0.058-0.58
			c0.147-1.207,0.499-2.287,1.056-3.238c0.557-0.952,1.284-1.692,2.182-2.223c0.897-0.53,1.887-0.779,2.971-0.749
			c1.315,0.031,2.368,0.472,3.157,1.323s1.184,1.93,1.184,3.238l-1.961-0.012c-0.016-0.82-0.244-1.483-0.685-1.99
			s-1.037-0.776-1.787-0.807c-1.091-0.023-1.998,0.383-2.722,1.219c-0.723,0.835-1.174,2.004-1.352,3.504l-0.035,0.302
			c-0.046,0.496-0.054,1.006-0.023,1.532c0.054,0.905,0.309,1.621,0.766,2.147C325.489,183.538,326.116,183.813,326.913,183.835z"/>
		<path fill="#0F3455" d="M340.795,185.576c-1.563-0.031-2.785-0.607-3.667-1.729c-0.882-1.122-1.253-2.557-1.114-4.306l0.058-0.499
			c0.131-1.246,0.5-2.383,1.108-3.412c0.607-1.029,1.348-1.804,2.223-2.327c0.874-0.522,1.818-0.772,2.832-0.749
			c1.292,0.031,2.306,0.46,3.041,1.288c0.735,0.828,1.138,1.95,1.207,3.366c0.023,0.503,0.008,1.006-0.046,1.509l-0.127,0.963
			h-8.205c-0.139,1.138,0.048,2.104,0.563,2.901c0.514,0.797,1.282,1.211,2.304,1.242c1.238,0.031,2.383-0.526,3.435-1.671
			l1.207,1.021c-0.526,0.759-1.205,1.352-2.037,1.782C342.743,185.385,341.816,185.592,340.795,185.576z M342.129,174.308
			c-0.866-0.023-1.623,0.271-2.269,0.882c-0.646,0.611-1.159,1.521-1.538,2.728l6.104,0.011l0.046-0.186
			c0.124-0.975-0.033-1.785-0.47-2.431C343.566,174.666,342.942,174.331,342.129,174.308z"/>
		<path fill="#0F3455" d="M357.033,181.944c0.116-0.866-0.36-1.478-1.427-1.833l-2.182-0.638c-1.841-0.635-2.731-1.687-2.669-3.157
			c0.054-1.106,0.559-2.014,1.515-2.722c0.955-0.708,2.079-1.054,3.371-1.039c1.269,0.016,2.3,0.385,3.093,1.108
			s1.174,1.665,1.143,2.826l-2.089-0.012c0.016-0.626-0.182-1.137-0.592-1.532s-0.956-0.6-1.636-0.615
			c-0.728-0.015-1.354,0.163-1.88,0.534c-0.487,0.348-0.77,0.805-0.847,1.369c-0.101,0.728,0.344,1.257,1.335,1.59l1.056,0.29
			c1.439,0.371,2.46,0.855,3.064,1.451s0.882,1.334,0.835,2.216c-0.046,0.782-0.302,1.462-0.766,2.042
			c-0.464,0.581-1.083,1.023-1.857,1.329c-0.774,0.306-1.598,0.447-2.472,0.423c-1.331-0.016-2.429-0.404-3.296-1.166
			c-0.866-0.762-1.284-1.743-1.253-2.942l2.101,0.011c0,0.704,0.225,1.269,0.673,1.694c0.449,0.426,1.063,0.639,1.845,0.639
			c0.766,0.016,1.427-0.145,1.984-0.482C356.638,182.994,356.956,182.532,357.033,181.944z"/>
	</g>
</g>
<line fill="none" stroke="#F58529" stroke-width="3.9613" stroke-miterlimit="10" x1="14.292" y1="148.991" x2="129.65" y2="148.991"/>
<line fill="none" stroke="#4EB75A" stroke-width="3.9613" stroke-miterlimit="10" x1="245.01" y1="148.991" x2="129.65" y2="148.991"/>
<line fill="none" stroke="#3575B8" stroke-width="3.9613" stroke-miterlimit="10" x1="245.01" y1="148.991" x2="360.366" y2="148.991"/>
</svg>
